# Blender v2.90.1 OBJ File: 'props.blend'
# www.blender.org
mtllib Chair.mtl
o Chair
v -1.000000 2.200821 1.054987
v -1.000000 1.846974 1.054987
v -1.000000 2.200821 -1.000000
v -1.000000 1.846974 -1.000000
v 1.000000 2.200821 1.054987
v 1.000000 1.846974 1.054987
v 1.000000 2.200821 -1.000000
v 1.000000 1.846974 -1.000000
v 1.000000 1.846974 0.654987
v 1.000000 1.846974 -0.600000
v -1.000000 2.200821 0.654987
v -1.000000 2.200821 -0.600000
v 1.000000 2.200821 -0.600000
v 1.000000 2.200821 0.654987
v -1.000000 1.846974 -0.600000
v -1.000000 1.846974 0.654987
v -0.600000 1.846974 1.054987
v 0.600000 1.846974 1.054987
v -0.600000 2.200821 -1.000000
v 0.600000 2.200821 -1.000000
v 0.600000 1.846974 -1.000000
v -0.600000 1.846974 -1.000000
v 0.600000 2.200821 1.054987
v -0.600000 2.200821 1.054987
v -0.600000 1.846974 0.654987
v 0.600000 1.846974 0.654987
v -0.600000 1.846974 -0.600000
v 0.600000 1.846974 -0.600000
v 0.600000 2.200821 0.654987
v -0.600000 2.200821 0.654987
v 0.600000 2.200821 -0.600000
v -0.600000 2.200821 -0.600000
v 0.956000 0.000000 -0.644000
v 0.956000 0.000000 -0.956000
v 0.644000 0.000000 1.010987
v 0.956000 0.000000 1.010987
v -0.644000 0.000000 -0.956000
v -0.956000 0.000000 -0.956000
v -0.956000 0.000000 0.698987
v -0.956000 0.000000 1.010987
v 0.956000 0.000000 0.698987
v -0.956000 0.000000 -0.644000
v 0.644000 0.000000 0.698987
v 0.644000 0.000000 -0.644000
v -0.644000 0.000000 1.010987
v 0.644000 0.000000 -0.956000
v -0.644000 0.000000 0.698987
v -0.644000 0.000000 -0.644000
v 0.600000 4.991628 -1.126552
v 1.000000 4.991628 -1.126552
v -1.000000 4.991628 -0.726551
v -1.000000 4.991628 -1.126551
v 1.000000 4.991628 -0.726552
v -0.600000 4.991628 -0.726551
v -0.600000 4.991628 -1.126551
v 0.600000 4.991628 -0.726552
vt 0.456311 0.853006
vt 0.456311 0.920262
vt 0.311592 0.920262
vt 0.311592 0.853006
vt 0.476913 0.853006
vt 0.456311 0.831996
vt 0.476913 0.831996
vt 0.336017 0.009404
vt 0.336017 0.030006
vt 0.315242 0.030006
vt 0.315242 0.009404
vt 0.114856 0.009404
vt 0.114856 0.030006
vt 0.093846 0.030006
vt 0.093846 0.009404
vt 0.226977 0.009404
vt 0.226977 0.030006
vt 0.205968 0.030006
vt 0.205968 0.009404
vt 0.185193 0.030006
vt 0.185193 0.009404
vt 0.696983 0.805510
vt 0.713116 0.805510
vt 0.713116 0.888068
vt 0.696983 0.888068
vt 0.562518 0.920262
vt 0.562518 0.941271
vt 0.496602 0.941271
vt 0.496602 0.920262
vt 0.427364 0.009404
vt 0.427364 0.030006
vt 0.406354 0.030006
vt 0.406354 0.009404
vt 0.247086 0.920291
vt 0.247086 0.941300
vt 0.227618 0.941300
vt 0.227618 0.920291
vt 0.161701 0.941300
vt 0.161701 0.920291
vt 0.227618 0.832025
vt 0.227618 0.853035
vt 0.161701 0.853035
vt 0.161701 0.832025
vt 0.247086 0.832025
vt 0.247086 0.853035
vt 0.562518 0.831996
vt 0.562518 0.853006
vt 0.496602 0.853006
vt 0.496602 0.831996
vt 0.581987 0.853006
vt 0.581987 0.920262
vt 0.294233 0.030006
vt 0.294233 0.009404
vt 0.910319 0.791400
vt 0.894237 0.791400
vt 0.894237 0.711798
vt 0.910319 0.711798
vt 0.476913 0.920262
vt 0.476913 0.941271
vt 0.456311 0.941271
vt 0.016982 0.941300
vt 0.016982 0.920291
vt 0.114856 0.174725
vt 0.093846 0.174725
vt 0.910319 0.695665
vt 0.894237 0.695665
vt 0.894237 0.905230
vt 0.894237 0.889098
vt 0.910319 0.889098
vt 0.910319 0.905230
vt 0.696971 0.695985
vt 0.713053 0.695985
vt 0.713053 0.712117
vt 0.696971 0.712117
vt 0.713116 0.904150
vt 0.696983 0.904150
vt 0.713053 0.791720
vt 0.696971 0.791720
vt 0.992877 0.889098
vt 0.992877 0.905230
vt 0.811754 0.711798
vt 0.811754 0.695665
vt 0.713116 0.986633
vt 0.696983 0.986633
vt 0.795611 0.695985
vt 0.795611 0.712117
vt 0.910319 0.984833
vt 0.894237 0.984833
vt 0.992877 0.695665
vt 0.992877 0.711798
vt 0.614488 0.712117
vt 0.614488 0.695985
vt 0.894237 0.809495
vt 0.910319 0.809495
vt 0.617381 0.904150
vt 0.617381 0.888068
vt 0.811754 0.905230
vt 0.811754 0.889098
vt 0.894237 0.616063
vt 0.910319 0.616063
vt 0.792719 0.888068
vt 0.792719 0.904150
vt 0.696971 0.616382
vt 0.713053 0.616382
vt 0.291903 0.853006
vt 0.291903 0.831996
vt 0.311592 0.831996
vt 0.291903 0.941271
vt 0.291903 0.920262
vt 0.311592 0.941271
vt 0.427364 0.174725
vt 0.406354 0.174725
vt 0.016982 0.853035
vt 0.016982 0.832025
vn -0.0000 -0.0227 -0.9997
vn -0.0000 -0.0453 -0.9990
vn -0.0000 -0.0079 -1.0000
vn -0.0000 -0.0118 -0.9999
vn 1.0000 -0.0079 -0.0000
vn 1.0000 0.0000 -0.0000
vn 0.9999 -0.0118 -0.0000
vn -1.0000 -0.0079 0.0000
vn -1.0000 0.0000 0.0000
vn -0.9999 -0.0118 0.0000
vn 0.0000 -0.0079 1.0000
vn 0.0000 0.0000 1.0000
vn 0.0000 -0.0118 0.9999
vn -0.0000 -0.0238 -0.9997
vn 0.0000 -1.0000 0.0000
vn 0.0000 1.0000 0.0000
vn -0.9997 -0.0238 0.0000
vn 0.0000 0.0453 0.9990
vn 0.0000 -0.0238 0.9997
vn 0.9997 -0.0238 -0.0000
usemtl WoodFurniture
s 1
f 20/1/1 19/2/1 55/3/2 49/4/2
f 21/5/3 20/1/1 7/6/1 8/7/4
f 9/8/5 14/9/6 5/10/6 6/11/7
f 15/12/8 12/13/9 3/14/9 4/15/10
f 17/16/11 24/17/12 1/18/12 2/19/13
f 2/19/10 1/18/9 11/20/9 16/21/8
f 16/21/8 11/20/9 12/13/9 15/12/8
f 21/22/3 8/23/4 34/24/14 46/25/14
f 25/26/15 16/27/15 15/28/15 27/29/15
f 8/30/7 7/31/6 13/32/6 10/33/5
f 10/33/5 13/32/6 14/9/6 9/8/5
f 23/34/16 5/35/16 14/36/16 29/37/16
f 29/37/16 14/36/16 13/38/16 31/39/16
f 11/40/16 30/41/16 32/42/16 12/43/16
f 30/41/16 29/37/16 31/39/16 32/42/16
f 1/44/16 24/45/16 30/41/16 11/40/16
f 24/45/16 23/34/16 29/37/16 30/41/16
f 9/46/15 26/47/15 28/48/15 10/49/15
f 26/47/15 25/26/15 27/29/15 28/48/15
f 18/50/15 17/51/15 25/26/15 26/47/15
f 6/11/13 5/10/12 23/52/12 18/53/11
f 18/53/11 23/52/12 24/17/12 17/16/11
f 15/54/8 4/55/10 38/56/17 42/57/17
f 28/48/15 27/29/15 22/58/15 21/5/15
f 4/59/4 3/60/1 19/2/1 22/58/3
f 22/58/3 19/2/1 20/1/1 21/5/3
f 31/39/18 13/38/18 53/61/18 56/62/18
f 3/14/9 12/13/9 51/63/9 52/64/9
f 48/65/15 42/57/15 38/56/15 37/66/15
f 45/67/15 40/68/15 39/69/15 47/70/15
f 36/71/15 35/72/15 43/73/15 41/74/15
f 33/75/15 44/76/15 46/25/15 34/24/15
f 26/77/14 9/78/14 41/74/14 43/73/14
f 16/79/14 25/80/14 47/70/14 39/69/14
f 4/81/4 22/82/3 37/66/14 38/56/14
f 10/83/19 28/84/19 44/76/19 33/75/19
f 18/85/17 26/86/17 43/73/17 35/72/17
f 25/87/20 17/88/20 45/67/20 47/70/20
f 27/89/19 15/90/19 42/57/19 48/65/19
f 9/91/5 6/92/7 36/71/20 41/74/20
f 2/93/10 16/94/8 39/69/17 40/68/17
f 28/95/17 21/96/17 46/25/17 44/76/17
f 17/97/11 2/98/13 40/68/19 45/67/19
f 22/99/20 27/100/20 48/65/20 37/66/20
f 8/101/7 10/102/5 33/75/20 34/24/20
f 6/103/13 18/104/11 35/72/19 36/71/19
f 56/105/16 53/106/16 50/107/16 49/4/16
f 51/108/16 54/109/16 55/3/16 52/110/16
f 54/109/16 56/105/16 49/4/16 55/3/16
f 7/6/1 20/1/1 49/4/2 50/107/2
f 13/32/6 7/31/6 50/111/6 53/112/6
f 12/43/18 32/42/18 54/113/18 51/114/18
f 32/42/18 31/39/18 56/62/18 54/113/18
f 19/2/1 3/60/1 52/110/2 55/3/2
